<?xml version="1.0" encoding="UTF-8"?>
<svg id="Lager_1" xmlns="http://www.w3.org/2000/svg" version="1.1" viewBox="0 0 755.9 385.6">
  <!-- Generator: Adobe Illustrator 29.0.0, SVG Export Plug-In . SVG Version: 2.1.0 Build 186)  -->
  <defs>
    <style>
      .st0 {
        fill: #fff;
      }

      .st1 {
        fill: #3568ff;
      }
    </style>
  </defs>
  <g>
    <path class="st0" d="M306.6,191.7c-60.9-61.7-11.7-166.4,75.2-160.7,14.3.9,26.2,6.3,39.6,10.5,24.4-15.9-3.9-25.5-19.1-29-104.9-24.5-185.2,92.2-121.8,180.8,63,88.1,203.6,46.1,209.8-61.8.6-10.2-1.9-60.8-21.9-44.9s-.8,19,0,28c7.1,89.5-98.4,141.1-161.6,77.1ZM501.9,14.4c-6-3.3-11.9,1.7-17,4.8-31.4,19.1-58.4,45.9-83.2,72.8l-38.1,50c-12.7-11.7-25.2-23.5-39.1-33.7-12.3-1.3-19.6,10.4-9.5,19.7s15.6,12.3,22.7,19.1,14.2,17.1,20.8,22.7,8,3,11.6,1.8,7.5-10.9,10.1-14.7c23.5-34.8,50.8-68.9,83.5-95.7,13.7-11.2,28.6-20.6,42.5-31.5,2.9-4.6.1-12.7-4.4-15.2Z"/>
    <path d="M306.9,191.6c62.7,65,172,9.6,160.7-79.8-.5-4.8-1.1-9.6-.6-13.7.3-5.1,3.7-11.6,8.7-11.1,10.5,1.2,12.7,19.8,14,28.4,6.6,56.5-34.1,109.3-87.5,121.8-47.5,12.6-98.4-6.6-124.9-48.7C216,97.1,310.1-20.6,412.1,15.5c6.8,2.5,13,6.1,14.8,10.6,3.3,8.4-6.5,12.4-13.6,11.3-6.3-.6-13.2-3.4-19.9-4.6-89.5-18.8-152.1,93.7-86.7,158.6l.2.2Z"/>
    <path class="st1" d="M503.4,14.5c3.9,2.1,5,6.8,3.1,11.3-3.8,8.1-13.1,12.8-20,18.3-9.1,6.6-18.1,13.3-26.5,20.7-33.2,28.5-60.2,63.9-84.4,100.3-11,13.9-21.7,4.6-30.7-5.7-5.7-6.3-11.7-12.4-18-17.8-6.8-6.1-20.8-15.9-15.2-26.2,8-9.5,21.5,2.1,28.6,8.4,3.7,3.2,7.3,6.4,10.9,9.7,7.3,6.7,11.5,9.2,17.5,1.8,9.6-12,21-27.9,30.7-40,12.5-15.9,86-91.2,104.1-80.7h.1Z"/>
  </g>
  <g>
    <path d="M63.2,304.6c-.6,1-1.3,1.8-2,2.3-.7.5-1.6.8-2.7.8s-2-.3-3.1-.9c-1.1-.6-2.4-1.3-3.8-2-1.4-.8-3-1.4-4.8-2-1.8-.6-3.8-.9-6.1-.9-4,0-6.9.8-8.9,2.5s-2.9,4-2.9,6.9.6,3.4,1.8,4.6c1.2,1.2,2.7,2.3,4.6,3.1,1.9.9,4.1,1.7,6.5,2.4,2.4.7,4.9,1.5,7.5,2.4,2.5.9,5,2,7.5,3.2s4.6,2.8,6.5,4.6c1.9,1.9,3.4,4.2,4.6,6.9,1.2,2.7,1.8,5.9,1.8,9.7s-.7,8.2-2.2,11.8c-1.5,3.7-3.6,6.9-6.4,9.6-2.8,2.7-6.2,4.9-10.3,6.4-4.1,1.6-8.7,2.3-13.9,2.3s-5.7-.3-8.7-.9c-2.9-.6-5.8-1.4-8.5-2.5-2.8-1.1-5.3-2.3-7.8-3.8-2.4-1.5-4.5-3.1-6.3-4.9l6.3-9.9c.5-.8,1.1-1.4,1.9-1.8.8-.5,1.7-.7,2.7-.7s2.5.4,3.8,1.2c1.3.8,2.7,1.7,4.3,2.6,1.6,1,3.5,1.8,5.5,2.6,2.1.8,4.5,1.2,7.4,1.2s6.8-.8,8.9-2.5c2.1-1.7,3.2-4.4,3.2-8s-.6-3.9-1.8-5.2c-1.2-1.3-2.7-2.4-4.6-3.3-1.9-.9-4.1-1.6-6.5-2.3-2.4-.7-4.9-1.4-7.4-2.2-2.5-.8-5-1.8-7.4-3-2.4-1.2-4.6-2.8-6.5-4.7-1.9-1.9-3.4-4.4-4.6-7.3-1.2-2.9-1.8-6.5-1.8-10.7s.7-6.8,2.1-10c1.4-3.3,3.4-6.2,6.1-8.7,2.7-2.5,5.9-4.6,9.8-6.1s8.3-2.3,13.3-2.3,5.5.2,8.2.7c2.6.4,5.2,1.1,7.5,1.9,2.4.9,4.6,1.9,6.7,3.1,2.1,1.2,3.9,2.5,5.5,4l-5.3,9.8Z"/>
    <path d="M80.2,377.2v-64.9h12c1.2,0,2.2.3,3,.8.8.5,1.4,1.4,1.7,2.4l1.1,3.5c1.1-1.1,2.2-2.2,3.4-3.1,1.2-.9,2.4-1.8,3.8-2.4,1.4-.7,2.8-1.2,4.4-1.6,1.6-.4,3.3-.6,5.2-.6,3.9,0,7.2,1,9.7,3,2.6,2,4.5,4.7,5.8,8.1,1.1-2,2.4-3.7,4-5.1s3.3-2.6,5.1-3.4c1.8-.9,3.7-1.5,5.8-1.9,2-.4,4-.6,6-.6,3.7,0,7,.6,9.9,1.7,2.9,1.1,5.3,2.7,7.2,4.8,1.9,2.1,3.4,4.7,4.4,7.8,1,3.1,1.5,6.5,1.5,10.4v41.2h-19.4v-41.2c0-6.7-2.9-10.1-8.6-10.1s-4.8.9-6.5,2.6c-1.7,1.7-2.6,4.2-2.6,7.5v41.2h-19.4v-41.2c0-3.7-.7-6.3-2.2-7.8-1.5-1.5-3.6-2.3-6.4-2.3s-3.4.4-5,1.2c-1.6.8-3,1.9-4.4,3.2v46.9h-19.4Z"/>
    <path d="M216.8,311.3c4.9,0,9.4.8,13.5,2.3,4,1.5,7.5,3.8,10.4,6.6,2.9,2.9,5.2,6.4,6.8,10.5,1.6,4.1,2.4,8.7,2.4,13.9s-.8,9.8-2.4,14c-1.6,4.2-3.9,7.7-6.8,10.6s-6.4,5.1-10.4,6.7c-4,1.6-8.5,2.3-13.5,2.3s-9.5-.8-13.5-2.3c-4.1-1.6-7.6-3.8-10.5-6.7-2.9-2.9-5.2-6.4-6.8-10.6-1.6-4.2-2.4-8.8-2.4-14s.8-9.7,2.4-13.9c1.6-4.1,3.9-7.6,6.8-10.5s6.4-5.1,10.5-6.6c4.1-1.5,8.6-2.3,13.5-2.3ZM216.8,363.8c4.5,0,7.7-1.6,9.9-4.7,2.1-3.1,3.2-7.9,3.2-14.4s-1.1-11.2-3.2-14.3c-2.1-3.1-5.4-4.7-9.9-4.7s-7.9,1.6-10.1,4.7c-2.1,3.1-3.2,7.9-3.2,14.3s1.1,11.2,3.2,14.4c2.1,3.1,5.5,4.7,10.1,4.7Z"/>
    <path d="M289.4,311.3c4.9,0,9.4.8,13.5,2.3,4,1.5,7.5,3.8,10.4,6.6,2.9,2.9,5.2,6.4,6.8,10.5,1.6,4.1,2.4,8.7,2.4,13.9s-.8,9.8-2.4,14c-1.6,4.2-3.9,7.7-6.8,10.6s-6.4,5.1-10.4,6.7c-4,1.6-8.5,2.3-13.5,2.3s-9.5-.8-13.5-2.3c-4.1-1.6-7.6-3.8-10.5-6.7-2.9-2.9-5.2-6.4-6.8-10.6-1.6-4.2-2.4-8.8-2.4-14s.8-9.7,2.4-13.9c1.6-4.1,3.9-7.6,6.8-10.5s6.4-5.1,10.5-6.6c4.1-1.5,8.6-2.3,13.5-2.3ZM289.4,363.8c4.5,0,7.7-1.6,9.9-4.7,2.1-3.1,3.2-7.9,3.2-14.4s-1.1-11.2-3.2-14.3c-2.1-3.1-5.4-4.7-9.9-4.7s-7.9,1.6-10.1,4.7c-2.1,3.1-3.2,7.9-3.2,14.3s1.1,11.2,3.2,14.4c2.1,3.1,5.5,4.7,10.1,4.7Z"/>
    <path d="M355.8,378.2c-3.1,0-5.8-.4-8.2-1.3-2.4-.9-4.3-2.2-5.9-3.8-1.6-1.6-2.8-3.6-3.7-6-.8-2.3-1.3-4.9-1.3-7.8v-33.5h-5.5c-1,0-1.9-.3-2.6-1-.7-.6-1.1-1.6-1.1-2.8v-7.6l10.3-2,3.8-15.8c.5-2,1.9-3,4.3-3h10.1v19h15.8v13.3h-15.8v32.2c0,1.5.4,2.7,1.1,3.7.7,1,1.8,1.5,3.2,1.5s1.3,0,1.8-.2c.5-.1.9-.3,1.3-.5.4-.2.7-.4,1-.5.3-.1.7-.2,1.1-.2s1.1.1,1.4.4c.4.3.7.7,1.1,1.3l5.9,9.2c-2.5,1.9-5.3,3.3-8.4,4.2-3.1.9-6.4,1.4-9.7,1.4Z"/>
    <path d="M383.1,377.2v-93.7h19.4v34.5c2.3-2,4.9-3.6,7.6-4.8,2.7-1.2,6-1.8,9.8-1.8s6.7.6,9.4,1.8c2.7,1.2,5,2.9,6.9,5.1s3.3,4.8,4.3,7.8c1,3,1.4,6.3,1.4,9.9v41.2h-19.4v-41.2c0-3.2-.7-5.6-2.2-7.4-1.5-1.8-3.6-2.7-6.4-2.7s-4.1.5-6,1.4c-1.9.9-3.7,2.1-5.4,3.7v46.2h-19.4Z"/>
    <path class="st1" d="M546,286v16.8h-25.7v74.4h-21.1v-74.4h-25.7v-16.8h72.4Z"/>
    <path class="st1" d="M571.2,311.3c4.9,0,9.4.8,13.5,2.3,4,1.5,7.5,3.8,10.4,6.6,2.9,2.9,5.2,6.4,6.8,10.5,1.6,4.1,2.4,8.7,2.4,13.9s-.8,9.8-2.4,14c-1.6,4.2-3.9,7.7-6.8,10.6s-6.4,5.1-10.4,6.7c-4,1.6-8.5,2.3-13.5,2.3s-9.5-.8-13.5-2.3c-4.1-1.6-7.6-3.8-10.5-6.7-2.9-2.9-5.2-6.4-6.8-10.6-1.6-4.2-2.4-8.8-2.4-14s.8-9.7,2.4-13.9c1.6-4.1,3.9-7.6,6.8-10.5s6.4-5.1,10.5-6.6c4.1-1.5,8.6-2.3,13.5-2.3ZM571.2,363.8c4.5,0,7.7-1.6,9.9-4.7,2.1-3.1,3.2-7.9,3.2-14.4s-1.1-11.2-3.2-14.3c-2.1-3.1-5.4-4.7-9.9-4.7s-7.9,1.6-10.1,4.7c-2.1,3.1-3.2,7.9-3.2,14.3s1.1,11.2,3.2,14.4c2.1,3.1,5.5,4.7,10.1,4.7Z"/>
    <path class="st1" d="M660.4,377.2c-1.2,0-2.2-.3-3-.8-.8-.5-1.4-1.4-1.7-2.4l-1.5-4.9c-1.3,1.4-2.6,2.6-4.1,3.8-1.4,1.1-3,2.1-4.6,2.9-1.6.8-3.4,1.4-5.3,1.9-1.9.4-4,.7-6.2.7-3.4,0-6.5-.8-9.4-2.3-2.9-1.5-5.4-3.7-7.4-6.5-2.1-2.8-3.7-6.3-4.9-10.4-1.2-4.1-1.8-8.8-1.8-14s.7-9.3,2-13.5,3.2-7.7,5.7-10.8c2.4-3,5.4-5.4,8.8-7.1,3.4-1.7,7.2-2.6,11.3-2.6s6.2.5,8.5,1.5c2.3,1,4.4,2.3,6.3,3.8v-32.8h19.4v93.7h-12ZM640.7,363.3c1.4,0,2.7-.1,3.8-.4,1.1-.3,2.2-.7,3.2-1.2,1-.5,1.9-1.1,2.7-1.9.9-.8,1.7-1.6,2.5-2.6v-27.5c-1.5-1.6-3.1-2.8-4.8-3.4-1.7-.6-3.5-1-5.3-1s-3.4.4-4.9,1.1c-1.5.7-2.8,1.8-3.9,3.4-1.1,1.6-2,3.6-2.6,6.1-.6,2.5-.9,5.5-.9,9.1s.2,6.3.8,8.6c.5,2.3,1.2,4.2,2.1,5.7.9,1.4,2,2.5,3.2,3.1,1.3.6,2.6.9,4.2.9Z"/>
    <path class="st1" d="M716.3,311.3c4.9,0,9.4.8,13.5,2.3,4,1.5,7.5,3.8,10.4,6.6,2.9,2.9,5.2,6.4,6.8,10.5,1.6,4.1,2.4,8.7,2.4,13.9s-.8,9.8-2.4,14c-1.6,4.2-3.9,7.7-6.8,10.6s-6.4,5.1-10.4,6.7c-4,1.6-8.5,2.3-13.5,2.3s-9.5-.8-13.5-2.3c-4.1-1.6-7.6-3.8-10.5-6.7-2.9-2.9-5.2-6.4-6.8-10.6-1.6-4.2-2.4-8.8-2.4-14s.8-9.7,2.4-13.9c1.6-4.1,3.9-7.6,6.8-10.5s6.4-5.1,10.5-6.6c4.1-1.5,8.6-2.3,13.5-2.3ZM716.3,363.8c4.5,0,7.7-1.6,9.9-4.7,2.1-3.1,3.2-7.9,3.2-14.4s-1.1-11.2-3.2-14.3c-2.1-3.1-5.4-4.7-9.9-4.7s-7.9,1.6-10.1,4.7c-2.1,3.1-3.2,7.9-3.2,14.3s1.1,11.2,3.2,14.4c2.1,3.1,5.5,4.7,10.1,4.7Z"/>
  </g>
</svg>